<?xml version="1.0" encoding="utf-8"?>
<!-- Generator: Adobe Illustrator 27.5.0, SVG Export Plug-In . SVG Version: 6.00 Build 0)  -->
<svg version="1.1" xmlns="http://www.w3.org/2000/svg" xmlns:xlink="http://www.w3.org/1999/xlink" x="0px" y="0px"
	 viewBox="0 0 500 500.008" style="enable-background:new 0 0 500 500.008;" xml:space="preserve">
<g id="BACKGROUND">
	<rect x="0.001" style="fill:#FFFFFF;" width="499.999" height="499.999"/>
</g>
<g id="OBJECTS">
	<g>
		<text transform="matrix(1 0 0 1 136.4989 375.2949)"><tspan x="0" y="0" style="fill:#333333; font-family:'Montserrat-Light'; font-size:31.5987px;">LAPTOP</tspan><tspan x="130.217" y="0" style="fill:#00C9AF; font-family:'Montserrat-Bold'; font-size:31.5987px;">LOGO</tspan></text>
		<g>
			
				<text transform="matrix(1 0 0 1 139.5116 397.6797)" style="fill:#333333; font-family:'Montserrat-Light'; font-size:15.7993px; letter-spacing:10;">LOREM IPSUM</text>
		</g>
		<g>
			<g>
				<g>
					<path style="fill:#FFFFFF;" d="M364.244,100.022l-151.509,44.832c-3.074,0.91-5.38,3.464-5.97,6.615l-13.897,74.116
						c-0.94,5.013,2.696,9.728,7.784,10.092l2.992,0.214c0.734,0.269,1.499,0.478,2.322,0.536l139.705,10.005
						c2.998,0.215,5.681-1.854,6.235-4.809l25.143-132.912C378.577,99.138,367.605,98.809,364.244,100.022z"/>
					<path style="fill:#333333;" d="M346.101,247.764c-0.175,0-0.347-0.006-0.525-0.019l-139.705-10.004
						c-0.802-0.058-1.602-0.233-2.502-0.549l-2.813-0.202c-2.798-0.199-5.385-1.588-7.097-3.808
						c-1.715-2.223-2.402-5.08-1.885-7.838l13.896-74.117c0.687-3.654,3.325-6.581,6.892-7.635L363.834,98.77
						c2.366-0.832,8.211-1.131,11.855,1.882c1.605,1.327,3.366,3.838,2.661,8.266l-25.149,132.949
						C352.556,245.309,349.552,247.764,346.101,247.764z M367.753,100.84c-1.258,0-2.371,0.171-3.063,0.42l-0.075,0.025
						l-151.508,44.832c-2.613,0.773-4.547,2.917-5.051,5.596l-13.896,74.116c-0.378,2.021,0.126,4.116,1.381,5.745
						c1.257,1.626,3.153,2.645,5.205,2.791l3.351,0.292c0.736,0.269,1.36,0.415,1.965,0.459l139.705,10.004
						c2.291,0.181,4.415-1.44,4.847-3.739l25.142-132.913c0.404-2.533-0.18-4.492-1.743-5.786
						C372.359,101.313,369.852,100.84,367.753,100.84z"/>
				</g>
				<g>
					<path style="fill:#FFFFFF;" d="M345.674,262.384l-73.414,69.675c-3.45,3.186-8.294,4.292-12.719,3.028
						c-0.658-0.158-1.29-0.395-1.922-0.685l-129.449-43.896c-0.579-0.29-2.528-4.134-3.897-7.136
						c-0.816-1.738-1.422-3.186-1.448-3.423c-0.132-1.343,0.526-2.738,1.975-3.423l63.382-39.92
						c2.212-1.027,4.661-1.475,7.083-1.317l5.24,0.369c0.053,0.026,0.105,0.026,0.158,0.026h0.237l140.614,10.164
						c1.238,0.079,2.107,0.922,2.449,1.922l0.737,2.212l1.711,9.453C346.754,260.409,346.57,261.568,345.674,262.384z"/>
					<path style="fill:#333333;" d="M263.168,336.909c-1.335,0-2.677-0.182-3.988-0.555c-0.64-0.153-1.35-0.405-2.109-0.756
						l-129.321-43.844c-0.507-0.24-1.412-0.693-4.675-7.837c-0.985-2.098-1.512-3.391-1.558-3.826
						c-0.198-2.021,0.872-3.882,2.721-4.756l63.244-39.843c2.543-1.196,5.218-1.687,7.869-1.517l5.647,0.396l140.613,10.164
						c1.661,0.107,3.045,1.183,3.6,2.809l0.741,2.223l1.759,9.633c0.496,1.366,0.082,3.029-1.137,4.148l-73.406,69.667
						C270.424,335.548,266.819,336.909,263.168,336.909z M128.868,289.352l129.175,43.803c0.733,0.329,1.281,0.526,1.808,0.652
						c4.063,1.165,8.455,0.113,11.518-2.714l73.419-69.68c0.648-0.593,0.458-1.329,0.383-1.542l-1.767-9.653l-0.689-2.033
						c-0.075-0.217-0.399-0.967-1.286-1.023l-140.623-10.165c-0.154,0.006-0.334,0.001-0.522-0.036l-5.112-0.359
						c-2.188-0.14-4.438,0.27-6.434,1.198l-63.236,39.839c-1.149,0.554-1.435,1.477-1.365,2.182
						c0.033,0.071,0.491,1.207,1.329,2.991C126.939,286.04,128.349,288.672,128.868,289.352z"/>
				</g>
				<g>
					<path style="fill:#FFFFFF;" d="M364.244,100.022l-151.508,44.832c-3.074,0.91-5.38,3.464-5.971,6.615l-13.897,74.116
						c-0.94,5.014,2.696,9.728,7.784,10.092l139.705,10.005c2.999,0.215,5.681-1.854,6.235-4.809l25.143-134.09
						C372.55,102.438,368.483,98.768,364.244,100.022z"/>
					<path style="fill:#333333;" d="M340.786,247.014c-0.175,0-0.347-0.007-0.525-0.019L200.557,236.99
						c-2.798-0.199-5.387-1.589-7.1-3.811c-1.715-2.223-2.402-5.079-1.882-7.837l13.896-74.116c0.687-3.654,3.325-6.581,6.892-7.635
						L363.87,98.76c2.425-0.716,5.009-0.136,6.897,1.566c1.885,1.7,2.728,4.206,2.26,6.7l-25.142,134.09
						C347.24,244.558,344.237,247.014,340.786,247.014z M364.616,101.285l-151.508,44.832c-2.613,0.773-4.547,2.917-5.051,5.596
						l-13.896,74.116c-0.378,2.021,0.124,4.113,1.378,5.742c1.258,1.629,3.155,2.647,5.207,2.794l139.705,10.005
						c2.301,0.182,4.418-1.44,4.847-3.739l25.142-134.09c0.298-1.585-0.239-3.178-1.438-4.26
						C367.802,101.199,366.164,100.83,364.616,101.285L364.616,101.285z"/>
				</g>
				<g>
					<path style="fill:#333333;" d="M200.626,220.844l12.126-64.666c0.428-2.284,2.1-4.136,4.328-4.795l138.147-40.879
						c3.197-0.946,6.264,1.822,5.649,5.099l-21.794,115.269c-0.418,2.228-2.441,3.789-4.702,3.627l-128.111-6.339
						C202.58,227.896,199.944,224.479,200.626,220.844z"/>
				</g>
				<g>
					<path style="fill:#FFFFFF;" d="M124.791,276.532l63.385-39.933c2.218-1.032,4.662-1.482,7.102-1.307l144.76,10.367
						c2.418,0.173,3.487,3.129,1.739,4.809l-72.09,69.289c-3.889,3.738-9.644,4.774-14.592,2.626l-130.223-39.589
						C122.156,281.616,122.106,277.782,124.791,276.532z"/>
					<path style="fill:#333333;" d="M260.431,324.812c-1.975,0-3.968-0.4-5.86-1.221l-130.082-39.536
						c-1.88-0.807-2.975-2.453-2.998-4.348c-0.026-1.864,0.993-3.515,2.661-4.329l63.321-39.89c2.564-1.206,5.249-1.699,7.9-1.507
						l144.76,10.367c1.643,0.117,3.014,1.152,3.574,2.701c0.563,1.551,0.172,3.225-1.016,4.369l-72.09,69.289
						C267.801,323.396,264.147,324.812,260.431,324.812z M194.254,236.573c-1.9,0-3.793,0.417-5.524,1.22l-63.385,39.932
						c-0.777,0.362-1.234,1.09-1.224,1.947c0.013,0.858,0.489,1.574,1.275,1.916l130.082,39.536
						c4.618,1.997,9.779,1.066,13.297-2.314l72.09-69.289c0.645-0.62,0.442-1.362,0.365-1.574c-0.075-0.212-0.396-0.909-1.286-0.973
						l-144.763-10.367C194.873,236.583,194.565,236.573,194.254,236.573z"/>
				</g>
				<g>
					<path style="fill:#333333;" d="M173.288,289.307l6.392-4.396c0.406-0.28,0.911-0.378,1.393-0.273l28.883,6.32
						c1.413,0.309,1.89,2.082,0.824,3.059l-6.786,6.218c-0.457,0.419-1.099,0.571-1.696,0.4l-28.49-8.142
						C172.358,292.078,172.044,290.162,173.288,289.307z"/>
				</g>
				<g>
					<g>
						<path style="fill:#FFFFFF;" d="M145.834,271.35l43.331-28.097c1.288-0.599,2.706-0.86,4.123-0.759l128.487,9.201
							c0.872,0.063,1.258,1.129,0.627,1.734l-46.113,43.994c-3.02,2.903-7.458,3.77-11.349,2.217l-119.09-27.359
							C145.443,272.11,145.433,271.537,145.834,271.35z"/>
						<path style="fill:#333333;" d="M268.884,301.715c-1.494,0-2.998-0.278-4.433-0.851l-118.896-27.298
							c-0.882-0.352-1.319-1-1.332-1.722c-0.01-0.68,0.357-1.309,0.949-1.633l43.276-28.061c1.651-0.783,3.289-1.096,4.935-0.967
							l128.488,9.201c0.928,0.067,1.702,0.653,2.021,1.53c0.316,0.876,0.095,1.821-0.576,2.466l-46.117,43.997
							C274.93,300.557,271.929,301.715,268.884,301.715z M148.08,271.463l117.155,26.894c3.592,1.416,7.501,0.653,10.142-1.882
							l45.611-43.515l-127.796-9.152c-1.167-0.082-2.386,0.136-3.472,0.639L148.08,271.463z"/>
					</g>
					<g>
						<g>
							
								<rect x="244.718" y="272.465" transform="matrix(0.7423 -0.67 0.67 0.7423 -111.4346 257.7859)" style="fill:#333333;" width="69.483" height="2.633"/>
						</g>
						<g>
							
								<rect x="227.063" y="269.703" transform="matrix(0.761 -0.6487 0.6487 0.761 -113.5003 233.9171)" style="fill:#333333;" width="67.393" height="2.632"/>
						</g>
						<g>
							
								<rect x="209.773" y="266.801" transform="matrix(0.7791 -0.6268 0.6268 0.7791 -114.5662 211.0688)" style="fill:#333333;" width="64.953" height="2.634"/>
						</g>
						<g>
							
								<rect x="192.392" y="264.018" transform="matrix(0.7962 -0.605 0.605 0.7962 -114.9598 189.3668)" style="fill:#333333;" width="62.47" height="2.635"/>
						</g>
						<g>
							
								<rect x="174.759" y="261.319" transform="matrix(0.8133 -0.5819 0.5819 0.8133 -114.5585 168.275)" style="fill:#333333;" width="60.314" height="2.634"/>
						</g>
						<g>
							
								<rect x="156.908" y="258.707" transform="matrix(0.8293 -0.5588 0.5588 0.8293 -113.5293 148.3562)" style="fill:#333333;" width="58.368" height="2.632"/>
						</g>
					</g>
					<g>
						<g>
							
								<rect x="219.282" y="211.273" transform="matrix(0.1861 -0.9825 0.9825 0.1861 -92.479 442.0945)" style="fill:#333333;" width="2.633" height="131.185"/>
						</g>
						<g>
							
								<rect x="231.521" y="200.973" transform="matrix(0.1469 -0.9891 0.9891 0.1469 -65.4145 458.0243)" style="fill:#333333;" width="2.633" height="131.928"/>
						</g>
						<g>
							
								<rect x="243.834" y="190.486" transform="matrix(0.1076 -0.9942 0.9942 0.1076 -36.6737 473.0338)" style="fill:#333333;" width="2.633" height="132.918"/>
						</g>
					</g>
				</g>
				<g>
					<polygon style="fill:#333333;" points="295.162,305.267 285.625,314.473 285.625,312.03 295.162,302.823 					"/>
				</g>
				<g>
					<polygon style="fill:#333333;" points="306.508,294.251 296.97,303.458 296.97,301.014 306.508,291.807 					"/>
				</g>
				<g>
					<polygon style="fill:#333333;" points="317.854,283.235 308.316,292.442 308.316,289.998 317.854,280.792 					"/>
				</g>
				<g>
					<path style="fill:#333333;" d="M341.62,259.099c-0.085,0.266-0.165,0.534-0.291,0.782c-0.048,0.096-0.141,0.161-0.199,0.252
						c0.01-0.351-0.039-0.697-0.196-0.988c-0.185-0.332-0.447-0.531-0.737-0.622c0.211-0.111,0.435-0.202,0.673-0.204
						c0.179-0.002,0.359,0.061,0.504,0.169c-0.447-0.699-1.295-0.832-1.967-0.185c-0.105,0.105-0.289,0.393-0.316,0.393
						c-0.474,0.711-0.579,1.685-0.21,2.344c0.395,0.711,1.158,0.895,1.817,0.474l0.026-0.026c0.079-0.053,0.158-0.132,0.237-0.211
						C341.538,260.744,341.78,259.855,341.62,259.099z"/>
				</g>
				<g>
					<path d="M280.501,128.707c0,0.576-0.467,1.042-1.042,1.042c-0.576,0-1.042-0.467-1.042-1.042c0-0.576,0.467-1.042,1.042-1.042
						C280.034,127.664,280.501,128.131,280.501,128.707z"/>
				</g>
				<g>
					<path style="fill:#FFFFFF;" d="M224.878,239.55l-14.227-1.012c-1.179-0.084-2.066-1.107-1.982-2.286l0,0
						c0.084-1.179,1.107-2.066,2.286-1.982l14.227,1.012c1.179,0.084,2.066,1.107,1.982,2.286l0,0
						C227.08,238.746,226.056,239.633,224.878,239.55z"/>
					<path style="fill:#333333;" d="M225.032,240.872c-0.082,0-0.165-0.003-0.247-0.009l-14.228-1.013
						c-1.9-0.134-3.335-1.79-3.204-3.689c0.136-1.904,1.777-3.375,3.693-3.204l14.228,1.012c1.9,0.134,3.335,1.79,3.204,3.69
						C228.347,239.479,226.824,240.872,225.032,240.872z M224.97,238.237c0.489,0.021,0.849-0.311,0.879-0.765
						c0.033-0.45-0.309-0.846-0.761-0.878l-14.228-1.012c-0.527-0.026-0.846,0.313-0.88,0.765c-0.033,0.45,0.309,0.845,0.761,0.877
						L224.97,238.237z"/>
				</g>
				<g>
					<path style="fill:#FFFFFF;" d="M313.735,245.872l-14.227-1.012c-1.179-0.084-2.066-1.107-1.982-2.286l0,0
						c0.084-1.179,1.107-2.066,2.286-1.982l14.227,1.012c1.179,0.084,2.066,1.107,1.982,2.286v0
						C315.937,245.068,314.914,245.956,313.735,245.872z"/>
					<path style="fill:#333333;" d="M313.89,247.194c-0.082,0-0.165-0.003-0.247-0.009l-14.228-1.012
						c-1.9-0.134-3.335-1.79-3.204-3.69c0.139-1.904,1.787-3.371,3.693-3.204l14.228,1.013c1.9,0.134,3.335,1.79,3.204,3.69
						C317.205,245.801,315.683,247.194,313.89,247.194z M313.829,244.559c0.54,0.022,0.849-0.311,0.879-0.764
						c0.034-0.45-0.309-0.846-0.761-0.878l-14.228-1.013c-0.476-0.024-0.849,0.312-0.879,0.765c-0.033,0.45,0.309,0.846,0.761,0.878
						L313.829,244.559z"/>
				</g>
				<g>
					<path style="fill:#333333;" d="M259.542,335.088c-0.658-0.158-1.29-0.395-1.922-0.685l-129.449-43.896
						c-0.579-0.29-1.727-1.822-3.096-4.824c0.395-0.368,0,0,0,0l129.432,40.882c2.523,0.797,4.35,2.992,4.675,5.617L259.542,335.088
						z"/>
				</g>
			</g>
			<g>
				<g>
					<path style="fill:#FFFFFF;" d="M359.226,299.759c3.637-6.917-0.271-17.174-9.946-29.069c6.661,9.207,9.159,16.984,6.384,22.263
						c-8.594,16.345-65.052,3.573-126.104-28.527s-103.576-71.372-94.982-87.716c4.824-9.173,30.376-7.183,59.708,0.58
						c-34.814-10.677-61.171-11.378-67.335,0.344c-9.716,18.479,34.403,60.798,98.545,94.523
						C289.637,305.881,349.51,318.239,359.226,299.759z"/>
				</g>
				<g>
					<path style="fill:#00C9AF;" d="M359.226,303.111c3.637-6.917-0.271-17.174-9.946-29.069c6.661,9.207,9.159,16.984,6.384,22.263
						c-8.594,16.345-65.052,3.573-126.104-28.527s-103.576-71.372-94.982-87.716c4.824-9.174,30.376-7.183,59.708,0.58
						c-34.814-10.677-61.171-11.378-67.335,0.344c-9.716,18.479,34.403,60.799,98.545,94.523
						C289.637,309.232,349.51,321.591,359.226,303.111z"/>
				</g>
				<g>
					<g>
						<path style="fill:#00C9AF;" d="M122.809,195.781c2.902,4.381,5.695,8.67,8.67,12.808c2.959,4.144,6.06,8.144,9.326,12.005
							c3.268,3.86,6.694,7.584,10.287,11.192c3.585,3.622,7.347,7.091,11.18,10.688c-4.875-1.982-9.39-4.761-13.572-7.966
							c-4.175-3.22-8.006-6.902-11.413-10.94c-3.409-4.037-6.401-8.427-8.879-13.08C125.945,205.83,123.956,200.917,122.809,195.781
							z"/>
					</g>
				</g>
				<g>
					<g>
						<path style="fill:#00C9AF;" d="M362.565,303.506c0.1,2.638-1.003,5.37-2.768,7.509c-1.75,2.176-4.187,3.816-6.741,4.891
							c-5.214,2.136-10.594,2.489-15.857,2.601c-5.294,0.023-10.542-0.564-15.661-1.576c-5.123-1.017-10.129-2.41-15.031-4.263
							c5.245-0.037,10.394,0.371,15.497,0.669c5.101,0.329,10.151,0.577,15.169,0.563c4.998-0.09,10.096-0.167,14.676-1.398
							C356.361,311.294,360.746,308.488,362.565,303.506z"/>
					</g>
				</g>
			</g>
		</g>
	</g>
</g>
</svg>
